<svg id="visual" viewBox="0 0 900 600" width="900" height="600" xmlns="http://www.w3.org/2000/svg" xmlns:xlink="http://www.w3.org/1999/xlink" version="1.1"><rect x="0" y="0" width="900" height="600" fill="#FFE4DB"></rect><path d="M0 522L21.5 516C43 510 86 498 128.8 485.3C171.7 472.7 214.3 459.3 257.2 458.7C300 458 343 470 385.8 481.5C428.7 493 471.3 504 514.2 505.2C557 506.3 600 497.7 642.8 478.3C685.7 459 728.3 429 771.2 418.8C814 408.7 857 418.3 878.5 423.2L900 428L900 601L878.5 601C857 601 814 601 771.2 601C728.3 601 685.7 601 642.8 601C600 601 557 601 514.2 601C471.3 601 428.7 601 385.8 601C343 601 300 601 257.2 601C214.3 601 171.7 601 128.8 601C86 601 43 601 21.5 601L0 601Z" fill="#FFFFFF" stroke-linecap="round" stroke-linejoin="miter"></path></svg>